<svg xmlns="http://www.w3.org/2000/svg" width="86" height="86" fill="none"><path stroke="#F2BE00" stroke-linecap="round" stroke-linejoin="round" stroke-width="6" d="M42.98 82.959c22.079 0 39.978-16.958 39.978-37.875H66.125l-6.312 6.312-6.313-6.312H3C3 66 20.9 82.959 42.98 82.959Zm35.654-37.876c.26-1.715 0-3.472 0-5.26C78.634 20.648 63.14 3 44.028 3c-8.044 0-17.544 2.753-23.421 7.372a10.498 10.498 0 0 1 1.399 5.253c0 5.81-4.695 10.52-10.487 10.52a10.49 10.49 0 0 1-2.147-.22c-1.325 3.682-2.048 9.757-2.048 13.898 0 1.788-.26 3.545 0 5.26m-2.22 12.626h21.042"/></svg>