<svg width="59" height="36" viewBox="0 0 59 36" fill="none" xmlns="http://www.w3.org/2000/svg">
<path d="M41.3996 14.4996L34.7996 2.69961L24.0996 3.49961L35.8996 25.1996V35.3996L46.5996 34.1996V24.0996L58.4996 0.599609L47.7996 1.49961L41.3996 14.4996Z" fill="#FFCB04"/>
<path d="M26.3996 11.8994L8.09961 13.6994C9.49961 17.7994 11.5996 19.7994 14.9996 19.4994L29.7996 18.2994L26.3996 11.8994Z" fill="#FFCB04"/>
<path d="M21.8 3.7998L0 5.8998C1.4 10.1998 3.5 12.2998 6.9 11.9998L25.4 10.2998L21.8 3.7998Z" fill="#FFCB04"/>
<path d="M15.6992 21.2002C17.0992 25.0002 18.8992 26.7002 22.0992 26.4002L33.6992 25.2002L30.7992 19.7002L15.6992 21.2002Z" fill="#FFCB04"/>
</svg>
