<svg width="86" height="86" viewBox="0 0 86 86" fill="none" xmlns="http://www.w3.org/2000/svg">
<path d="M42.9792 82.9585C65.059 82.9585 82.9583 66.0012 82.9583 45.0835H66.125L59.8125 51.396L53.5 45.0835H3C3 66.0012 20.8993 82.9585 42.9792 82.9585Z" stroke="white" stroke-width="6" stroke-linecap="round" stroke-linejoin="round"/>
<path d="M78.6342 45.0833C78.894 43.3678 78.6342 41.6112 78.6342 39.8229C78.6342 20.6483 63.1403 3 44.0278 3C35.984 3 26.4837 5.75339 20.6069 10.372C21.4966 11.9178 22.0056 13.7117 22.0056 15.625C22.0056 21.4354 17.3105 26.1458 11.5189 26.1458C10.7831 26.1458 10.065 26.0699 9.37194 25.9251C8.04661 29.6072 7.32416 35.6825 7.32416 39.8229C7.32416 41.6112 7.06339 43.3678 7.3233 45.0833" stroke="white" stroke-width="6" stroke-linecap="round" stroke-linejoin="round"/>
<path d="M5.104 57.7085H26.1457" stroke="white" stroke-width="6" stroke-linecap="round" stroke-linejoin="round"/>
</svg>
