<svg width="359" height="74" viewBox="0 0 359 74" fill="none" xmlns="http://www.w3.org/2000/svg">
<path d="M41 27C44.3137 27 47 24.3137 47 21C47 17.6863 44.3137 15 41 15C37.6863 15 35 17.6863 35 21C35 24.3137 37.6863 27 41 27Z" fill="black"/>
<path d="M54.4545 26.4545C54.2125 27.0029 54.1403 27.6113 54.2473 28.2011C54.3542 28.7909 54.6354 29.3351 55.0545 29.7636L55.1636 29.8727C55.5017 30.2104 55.7699 30.6115 55.9529 31.0529C56.1359 31.4944 56.2301 31.9676 56.2301 32.4455C56.2301 32.9233 56.1359 33.3965 55.9529 33.838C55.7699 34.2794 55.5017 34.6805 55.1636 35.0182C54.8259 35.3563 54.4249 35.6245 53.9834 35.8075C53.542 35.9905 53.0688 36.0847 52.5909 36.0847C52.113 36.0847 51.6398 35.9905 51.1984 35.8075C50.757 35.6245 50.3559 35.3563 50.0182 35.0182L49.9091 34.9091C49.4806 34.4899 48.9363 34.2088 48.3465 34.1018C47.7567 33.9949 47.1484 34.0671 46.6 34.3091C46.0622 34.5396 45.6036 34.9223 45.2806 35.4101C44.9575 35.8979 44.7842 36.4695 44.7818 37.0545V37.3636C44.7818 38.3281 44.3987 39.253 43.7168 39.9349C43.0348 40.6169 42.1099 41 41.1455 41C40.181 41 39.2561 40.6169 38.5742 39.9349C37.8922 39.253 37.5091 38.3281 37.5091 37.3636V37.2C37.495 36.5982 37.3002 36.0145 36.95 35.5249C36.5998 35.0353 36.1104 34.6623 35.5455 34.4545C34.9971 34.2125 34.3887 34.1403 33.7989 34.2473C33.2091 34.3542 32.6649 34.6354 32.2364 35.0545L32.1273 35.1636C31.7896 35.5017 31.3885 35.7699 30.9471 35.9529C30.5056 36.1359 30.0324 36.2301 29.5545 36.2301C29.0767 36.2301 28.6035 36.1359 28.162 35.9529C27.7206 35.7699 27.3195 35.5017 26.9818 35.1636C26.6437 34.8259 26.3755 34.4249 26.1925 33.9834C26.0095 33.542 25.9153 33.0688 25.9153 32.5909C25.9153 32.113 26.0095 31.6398 26.1925 31.1984C26.3755 30.757 26.6437 30.3559 26.9818 30.0182L27.0909 29.9091C27.5101 29.4806 27.7912 28.9363 27.8982 28.3465C28.0051 27.7567 27.9329 27.1484 27.6909 26.6C27.4604 26.0622 27.0777 25.6036 26.5899 25.2806C26.1021 24.9575 25.5305 24.7842 24.9455 24.7818H24.6364C23.6719 24.7818 22.747 24.3987 22.0651 23.7168C21.3831 23.0348 21 22.1099 21 21.1455C21 20.181 21.3831 19.2561 22.0651 18.5742C22.747 17.8922 23.6719 17.5091 24.6364 17.5091H24.8C25.4018 17.495 25.9855 17.3002 26.4751 16.95C26.9647 16.5998 27.3377 16.1104 27.5455 15.5455C27.7875 14.9971 27.8597 14.3887 27.7527 13.7989C27.6458 13.2091 27.3646 12.6649 26.9455 12.2364L26.8364 12.1273C26.4983 11.7896 26.2301 11.3885 26.0471 10.9471C25.8641 10.5056 25.7699 10.0324 25.7699 9.55455C25.7699 9.07667 25.8641 8.60348 26.0471 8.16204C26.2301 7.72059 26.4983 7.31954 26.8364 6.98182C27.1741 6.64372 27.5751 6.37551 28.0166 6.19251C28.458 6.00951 28.9312 5.91532 29.4091 5.91532C29.887 5.91532 30.3602 6.00951 30.8016 6.19251C31.243 6.37551 31.6441 6.64372 31.9818 6.98182L32.0909 7.09091C32.5194 7.51007 33.0637 7.79125 33.6535 7.89819C34.2433 8.00513 34.8516 7.93294 35.4 7.69091H35.5455C36.0832 7.46043 36.5419 7.07774 36.8649 6.58994C37.1879 6.10214 37.3613 5.53052 37.3636 4.94545V4.63636C37.3636 3.67194 37.7468 2.74702 38.4287 2.06507C39.1107 1.38312 40.0356 1 41 1C41.9644 1 42.8893 1.38312 43.5713 2.06507C44.2532 2.74702 44.6364 3.67194 44.6364 4.63636V4.8C44.6387 5.38507 44.8121 5.95668 45.1351 6.44448C45.4582 6.93228 45.9168 7.31498 46.4545 7.54545C47.0029 7.78748 47.6113 7.85968 48.2011 7.75274C48.7909 7.64579 49.3351 7.36461 49.7636 6.94545L49.8727 6.83636C50.2104 6.49827 50.6115 6.23005 51.0529 6.04706C51.4944 5.86406 51.9676 5.76987 52.4455 5.76987C52.9233 5.76987 53.3965 5.86406 53.838 6.04706C54.2794 6.23005 54.6805 6.49827 55.0182 6.83636C55.3563 7.17408 55.6245 7.57513 55.8075 8.01658C55.9905 8.45803 56.0847 8.93122 56.0847 9.40909C56.0847 9.88697 55.9905 10.3602 55.8075 10.8016C55.6245 11.243 55.3563 11.6441 55.0182 11.9818L54.9091 12.0909C54.4899 12.5194 54.2088 13.0637 54.1018 13.6535C53.9949 14.2433 54.0671 14.8516 54.3091 15.4V15.5455C54.5396 16.0832 54.9223 16.5419 55.4101 16.8649C55.8979 17.1879 56.4695 17.3613 57.0545 17.3636H57.3636C58.3281 17.3636 59.253 17.7468 59.9349 18.4287C60.6169 19.1107 61 20.0356 61 21C61 21.9644 60.6169 22.8893 59.9349 23.5713C59.253 24.2532 58.3281 24.6364 57.3636 24.6364H57.2C56.6149 24.6387 56.0433 24.8121 55.5555 25.1351C55.0677 25.4582 54.685 25.9168 54.4545 26.4545Z" fill="black"/>
<path d="M41 27C44.3137 27 47 24.3137 47 21C47 17.6863 44.3137 15 41 15C37.6863 15 35 17.6863 35 21C35 24.3137 37.6863 27 41 27Z" stroke="white" stroke-width="2" stroke-linecap="round" stroke-linejoin="round"/>
<path d="M54.4545 26.4545C54.2125 27.0029 54.1403 27.6113 54.2473 28.2011C54.3542 28.7909 54.6354 29.3351 55.0545 29.7636L55.1636 29.8727C55.5017 30.2104 55.7699 30.6115 55.9529 31.0529C56.1359 31.4944 56.2301 31.9676 56.2301 32.4455C56.2301 32.9233 56.1359 33.3965 55.9529 33.838C55.7699 34.2794 55.5017 34.6805 55.1636 35.0182C54.8259 35.3563 54.4249 35.6245 53.9834 35.8075C53.542 35.9905 53.0688 36.0847 52.5909 36.0847C52.113 36.0847 51.6398 35.9905 51.1984 35.8075C50.757 35.6245 50.3559 35.3563 50.0182 35.0182L49.9091 34.9091C49.4806 34.4899 48.9363 34.2088 48.3465 34.1018C47.7567 33.9949 47.1484 34.0671 46.6 34.3091C46.0622 34.5396 45.6036 34.9223 45.2806 35.4101C44.9575 35.8979 44.7842 36.4695 44.7818 37.0545V37.3636C44.7818 38.3281 44.3987 39.253 43.7168 39.9349C43.0348 40.6169 42.1099 41 41.1455 41C40.181 41 39.2561 40.6169 38.5742 39.9349C37.8922 39.253 37.5091 38.3281 37.5091 37.3636V37.2C37.495 36.5982 37.3002 36.0145 36.95 35.5249C36.5998 35.0353 36.1104 34.6623 35.5455 34.4545C34.9971 34.2125 34.3887 34.1403 33.7989 34.2473C33.2091 34.3542 32.6649 34.6354 32.2364 35.0545L32.1273 35.1636C31.7896 35.5017 31.3885 35.7699 30.9471 35.9529C30.5056 36.1359 30.0324 36.2301 29.5545 36.2301C29.0767 36.2301 28.6035 36.1359 28.162 35.9529C27.7206 35.7699 27.3195 35.5017 26.9818 35.1636C26.6437 34.8259 26.3755 34.4249 26.1925 33.9834C26.0095 33.542 25.9153 33.0688 25.9153 32.5909C25.9153 32.113 26.0095 31.6398 26.1925 31.1984C26.3755 30.757 26.6437 30.3559 26.9818 30.0182L27.0909 29.9091C27.5101 29.4806 27.7912 28.9363 27.8982 28.3465C28.0051 27.7567 27.9329 27.1484 27.6909 26.6C27.4604 26.0622 27.0777 25.6036 26.5899 25.2806C26.1021 24.9575 25.5305 24.7842 24.9455 24.7818H24.6364C23.6719 24.7818 22.747 24.3987 22.0651 23.7168C21.3831 23.0348 21 22.1099 21 21.1455C21 20.181 21.3831 19.2561 22.0651 18.5742C22.747 17.8922 23.6719 17.5091 24.6364 17.5091H24.8C25.4018 17.495 25.9855 17.3002 26.4751 16.95C26.9647 16.5998 27.3377 16.1104 27.5455 15.5455C27.7875 14.9971 27.8597 14.3887 27.7527 13.7989C27.6458 13.2091 27.3646 12.6649 26.9455 12.2364L26.8364 12.1273C26.4983 11.7896 26.2301 11.3885 26.0471 10.9471C25.8641 10.5056 25.7699 10.0324 25.7699 9.55455C25.7699 9.07667 25.8641 8.60348 26.0471 8.16204C26.2301 7.72059 26.4983 7.31954 26.8364 6.98182C27.1741 6.64372 27.5751 6.37551 28.0166 6.19251C28.458 6.00951 28.9312 5.91532 29.4091 5.91532C29.887 5.91532 30.3602 6.00951 30.8016 6.19251C31.243 6.37551 31.6441 6.64372 31.9818 6.98182L32.0909 7.09091C32.5194 7.51007 33.0637 7.79125 33.6535 7.89819C34.2433 8.00513 34.8516 7.93294 35.4 7.69091H35.5455C36.0832 7.46043 36.5419 7.07774 36.8649 6.58994C37.1879 6.10214 37.3613 5.53052 37.3636 4.94545V4.63636C37.3636 3.67194 37.7468 2.74702 38.4287 2.06507C39.1107 1.38312 40.0356 1 41 1C41.9644 1 42.8893 1.38312 43.5713 2.06507C44.2532 2.74702 44.6364 3.67194 44.6364 4.63636V4.8C44.6387 5.38507 44.8121 5.95668 45.1351 6.44448C45.4582 6.93228 45.9168 7.31498 46.4545 7.54545C47.0029 7.78748 47.6113 7.85968 48.2011 7.75274C48.7909 7.64579 49.3351 7.36461 49.7636 6.94545L49.8727 6.83636C50.2104 6.49827 50.6115 6.23005 51.0529 6.04706C51.4944 5.86406 51.9676 5.76987 52.4455 5.76987C52.9233 5.76987 53.3965 5.86406 53.838 6.04706C54.2794 6.23005 54.6805 6.49827 55.0182 6.83636C55.3563 7.17408 55.6245 7.57513 55.8075 8.01658C55.9905 8.45803 56.0847 8.93122 56.0847 9.40909C56.0847 9.88697 55.9905 10.3602 55.8075 10.8016C55.6245 11.243 55.3563 11.6441 55.0182 11.9818L54.9091 12.0909C54.4899 12.5194 54.2088 13.0637 54.1018 13.6535C53.9949 14.2433 54.0671 14.8516 54.3091 15.4V15.5455C54.5396 16.0832 54.9223 16.5419 55.4101 16.8649C55.8979 17.1879 56.4695 17.3613 57.0545 17.3636H57.3636C58.3281 17.3636 59.253 17.7468 59.9349 18.4287C60.6169 19.1107 61 20.0356 61 21C61 21.9644 60.6169 22.8893 59.9349 23.5713C59.253 24.2532 58.3281 24.6364 57.3636 24.6364H57.2C56.6149 24.6387 56.0433 24.8121 55.5555 25.1351C55.0677 25.4582 54.685 25.9168 54.4545 26.4545Z" stroke="white" stroke-width="2" stroke-linecap="round" stroke-linejoin="round"/>
<path d="M79.5955 30.2727H85.5881L96.0071 55.7131H96.3906L106.81 30.2727H112.802V63H108.104V39.3175H107.8L98.1484 62.9521H94.2493L84.5973 39.3015H84.2937V63H79.5955V30.2727ZM126.741 63.5433C125.185 63.5433 123.779 63.2557 122.522 62.6804C121.265 62.0945 120.269 61.2475 119.534 60.1396C118.809 59.0316 118.447 57.6733 118.447 56.0646C118.447 54.6797 118.714 53.5398 119.246 52.6449C119.779 51.75 120.498 51.0415 121.403 50.5195C122.309 49.9975 123.321 49.6033 124.44 49.337C125.558 49.0707 126.698 48.8683 127.859 48.7298C129.33 48.5593 130.523 48.4208 131.439 48.3143C132.355 48.1971 133.021 48.0107 133.437 47.755C133.852 47.4993 134.06 47.0838 134.06 46.5085V46.3967C134.06 45.0011 133.666 43.9197 132.877 43.1527C132.1 42.3857 130.938 42.0021 129.394 42.0021C127.785 42.0021 126.517 42.359 125.59 43.0728C124.674 43.7759 124.04 44.5589 123.689 45.4219L119.198 44.3991C119.731 42.9077 120.509 41.7038 121.531 40.7876C122.565 39.8608 123.753 39.1896 125.095 38.7741C126.437 38.348 127.849 38.1349 129.33 38.1349C130.31 38.1349 131.348 38.2521 132.446 38.4865C133.554 38.7102 134.587 39.1257 135.546 39.733C136.515 40.3402 137.309 41.2085 137.927 42.3377C138.545 43.4563 138.854 44.9105 138.854 46.7003V63H134.188V59.6442H133.996C133.687 60.2621 133.223 60.8693 132.606 61.4659C131.988 62.0625 131.194 62.5579 130.225 62.9521C129.255 63.3462 128.094 63.5433 126.741 63.5433ZM127.78 59.7081C129.101 59.7081 130.23 59.4471 131.167 58.9251C132.116 58.4031 132.835 57.7212 133.325 56.8796C133.825 56.0273 134.076 55.1165 134.076 54.147V50.983C133.905 51.1534 133.575 51.3132 133.085 51.4624C132.606 51.6009 132.057 51.7234 131.439 51.8299C130.821 51.9258 130.219 52.0163 129.633 52.1016C129.047 52.1761 128.557 52.2401 128.163 52.2933C127.236 52.4105 126.389 52.6076 125.622 52.8846C124.866 53.1616 124.259 53.5611 123.801 54.0831C123.353 54.5945 123.129 55.2763 123.129 56.1286C123.129 57.3111 123.566 58.206 124.44 58.8132C125.313 59.4098 126.427 59.7081 127.78 59.7081ZM149.996 48.4261V63H145.218V38.4545H149.804V42.4496H150.108C150.672 41.1499 151.557 40.1058 152.76 39.3175C153.975 38.5291 155.504 38.1349 157.347 38.1349C159.019 38.1349 160.484 38.4865 161.741 39.1896C162.998 39.8821 163.973 40.9155 164.666 42.2898C165.358 43.6641 165.704 45.3633 165.704 47.3874V63H160.926V47.9627C160.926 46.1836 160.463 44.7933 159.536 43.7919C158.609 42.7798 157.336 42.2738 155.717 42.2738C154.609 42.2738 153.623 42.5135 152.76 42.9929C151.908 43.4723 151.232 44.1754 150.731 45.1023C150.241 46.0185 149.996 47.1264 149.996 48.4261ZM179.256 63.5433C177.7 63.5433 176.294 63.2557 175.037 62.6804C173.78 62.0945 172.784 61.2475 172.048 60.1396C171.324 59.0316 170.962 57.6733 170.962 56.0646C170.962 54.6797 171.228 53.5398 171.761 52.6449C172.294 51.75 173.013 51.0415 173.918 50.5195C174.824 49.9975 175.836 49.6033 176.954 49.337C178.073 49.0707 179.213 48.8683 180.374 48.7298C181.844 48.5593 183.037 48.4208 183.954 48.3143C184.87 48.1971 185.536 48.0107 185.951 47.755C186.367 47.4993 186.574 47.0838 186.574 46.5085V46.3967C186.574 45.0011 186.18 43.9197 185.392 43.1527C184.614 42.3857 183.453 42.0021 181.908 42.0021C180.3 42.0021 179.032 42.359 178.105 43.0728C177.189 43.7759 176.555 44.5589 176.203 45.4219L171.713 44.3991C172.246 42.9077 173.023 41.7038 174.046 40.7876C175.079 39.8608 176.267 39.1896 177.61 38.7741C178.952 38.348 180.363 38.1349 181.844 38.1349C182.824 38.1349 183.863 38.2521 184.96 38.4865C186.068 38.7102 187.102 39.1257 188.061 39.733C189.03 40.3402 189.824 41.2085 190.442 42.3377C191.059 43.4563 191.368 44.9105 191.368 46.7003V63H186.702V59.6442H186.51C186.202 60.2621 185.738 60.8693 185.12 61.4659C184.502 62.0625 183.709 62.5579 182.739 62.9521C181.77 63.3462 180.608 63.5433 179.256 63.5433ZM180.294 59.7081C181.615 59.7081 182.744 59.4471 183.682 58.9251C184.63 58.4031 185.349 57.7212 185.839 56.8796C186.34 56.0273 186.59 55.1165 186.59 54.147V50.983C186.42 51.1534 186.09 51.3132 185.6 51.4624C185.12 51.6009 184.572 51.7234 183.954 51.8299C183.336 51.9258 182.734 52.0163 182.148 52.1016C181.562 52.1761 181.072 52.2401 180.678 52.2933C179.751 52.4105 178.904 52.6076 178.137 52.8846C177.381 53.1616 176.773 53.5611 176.315 54.0831C175.868 54.5945 175.644 55.2763 175.644 56.1286C175.644 57.3111 176.081 58.206 176.954 58.8132C177.828 59.4098 178.941 59.7081 180.294 59.7081ZM208.024 72.7159C206.074 72.7159 204.396 72.4602 202.99 71.9489C201.594 71.4375 200.454 70.761 199.57 69.9194C198.686 69.0778 198.025 68.1563 197.589 67.1548L201.696 65.4609C201.983 65.9297 202.367 66.4251 202.846 66.9471C203.336 67.4798 203.997 67.9325 204.828 68.3054C205.669 68.6783 206.751 68.8647 208.072 68.8647C209.883 68.8647 211.38 68.4226 212.562 67.5384C213.745 66.6648 214.336 65.2692 214.336 63.3516V58.5256H214.032C213.745 59.0476 213.329 59.6282 212.786 60.2674C212.253 60.9066 211.518 61.4606 210.581 61.9293C209.643 62.3981 208.423 62.6325 206.921 62.6325C204.982 62.6325 203.235 62.1797 201.68 61.2741C200.135 60.358 198.91 59.0103 198.004 57.2312C197.109 55.4414 196.662 53.2415 196.662 50.6314C196.662 48.0213 197.104 45.7841 197.988 43.9197C198.883 42.0554 200.108 40.6278 201.664 39.6371C203.219 38.6357 204.982 38.1349 206.953 38.1349C208.476 38.1349 209.707 38.3906 210.644 38.902C211.582 39.4027 212.312 39.9886 212.834 40.6598C213.366 41.331 213.777 41.9222 214.064 42.4336H214.416V38.4545H219.098V63.5433C219.098 65.6527 218.608 67.3839 217.628 68.7369C216.648 70.0898 215.321 71.0913 213.649 71.7411C211.987 72.391 210.112 72.7159 208.024 72.7159ZM207.976 58.6694C209.35 58.6694 210.511 58.3498 211.459 57.7106C212.418 57.0607 213.143 56.1339 213.633 54.93C214.133 53.7156 214.384 52.2614 214.384 50.5675C214.384 48.9162 214.139 47.462 213.649 46.2049C213.159 44.9478 212.44 43.9677 211.491 43.2646C210.543 42.5508 209.371 42.1939 207.976 42.1939C206.538 42.1939 205.339 42.5668 204.38 43.3125C203.421 44.0476 202.697 45.049 202.207 46.3168C201.728 47.5845 201.488 49.0014 201.488 50.5675C201.488 52.1761 201.733 53.5877 202.223 54.8022C202.713 56.0167 203.437 56.9648 204.396 57.6467C205.366 58.3285 206.559 58.6694 207.976 58.6694ZM236.085 63.4954C233.666 63.4954 231.584 62.9787 229.837 61.9453C228.1 60.9013 226.758 59.4364 225.81 57.5508C224.872 55.6545 224.403 53.4332 224.403 50.8871C224.403 48.3729 224.872 46.157 225.81 44.2393C226.758 42.3217 228.079 40.8249 229.773 39.7489C231.477 38.6729 233.469 38.1349 235.749 38.1349C237.134 38.1349 238.476 38.364 239.776 38.8221C241.076 39.2802 242.242 39.9993 243.276 40.9794C244.309 41.9595 245.124 43.2326 245.721 44.7987C246.317 46.354 246.616 48.245 246.616 50.4716V52.1655H227.104V48.5859H241.934C241.934 47.3288 241.678 46.2156 241.166 45.2461C240.655 44.266 239.936 43.4936 239.009 42.929C238.093 42.3643 237.017 42.082 235.781 42.082C234.439 42.082 233.267 42.4123 232.266 43.0728C231.275 43.7227 230.508 44.5749 229.964 45.6296C229.432 46.6736 229.165 47.8082 229.165 49.0334V51.8299C229.165 53.4705 229.453 54.8661 230.028 56.0167C230.614 57.1673 231.429 58.0462 232.473 58.6534C233.517 59.25 234.737 59.5483 236.133 59.5483C237.038 59.5483 237.864 59.4205 238.61 59.1648C239.355 58.8984 240 58.5043 240.543 57.9822C241.087 57.4602 241.502 56.8157 241.79 56.0487L246.312 56.8636C245.95 58.1953 245.3 59.3619 244.362 60.3633C243.436 61.354 242.269 62.1264 240.863 62.6804C239.467 63.2237 237.875 63.4954 236.085 63.4954ZM251.917 63V38.4545H256.503V42.4496H256.807C257.318 41.0966 258.155 40.0419 259.316 39.2855C260.477 38.5185 261.867 38.1349 263.487 38.1349C265.127 38.1349 266.502 38.5185 267.61 39.2855C268.728 40.0526 269.554 41.1072 270.086 42.4496H270.342C270.928 41.1392 271.86 40.0952 273.139 39.3175C274.417 38.5291 275.941 38.1349 277.709 38.1349C279.936 38.1349 281.752 38.8327 283.158 40.2283C284.575 41.6239 285.284 43.728 285.284 46.5405V63H280.506V46.9879C280.506 45.326 280.053 44.1222 279.147 43.3764C278.242 42.6307 277.16 42.2578 275.903 42.2578C274.348 42.2578 273.139 42.7372 272.276 43.696C271.413 44.6442 270.981 45.864 270.981 47.3555V63H266.219V46.6843C266.219 45.3526 265.804 44.282 264.973 43.4723C264.142 42.6626 263.061 42.2578 261.729 42.2578C260.823 42.2578 259.987 42.4975 259.22 42.9769C258.464 43.4457 257.851 44.1009 257.382 44.9425C256.924 45.7841 256.695 46.7589 256.695 47.8668V63H251.917ZM302.266 63.4954C299.848 63.4954 297.765 62.9787 296.018 61.9453C294.282 60.9013 292.939 59.4364 291.991 57.5508C291.054 55.6545 290.585 53.4332 290.585 50.8871C290.585 48.3729 291.054 46.157 291.991 44.2393C292.939 42.3217 294.26 40.8249 295.954 39.7489C297.659 38.6729 299.651 38.1349 301.931 38.1349C303.316 38.1349 304.658 38.364 305.958 38.8221C307.258 39.2802 308.424 39.9993 309.457 40.9794C310.491 41.9595 311.306 43.2326 311.902 44.7987C312.499 46.354 312.797 48.245 312.797 50.4716V52.1655H293.286V48.5859H308.115C308.115 47.3288 307.859 46.2156 307.348 45.2461C306.837 44.266 306.118 43.4936 305.191 42.929C304.275 42.3643 303.199 42.082 301.963 42.082C300.62 42.082 299.449 42.4123 298.447 43.0728C297.456 43.7227 296.689 44.5749 296.146 45.6296C295.613 46.6736 295.347 47.8082 295.347 49.0334V51.8299C295.347 53.4705 295.635 54.8661 296.21 56.0167C296.796 57.1673 297.611 58.0462 298.655 58.6534C299.699 59.25 300.919 59.5483 302.314 59.5483C303.22 59.5483 304.046 59.4205 304.791 59.1648C305.537 58.8984 306.182 58.5043 306.725 57.9822C307.268 57.4602 307.684 56.8157 307.971 56.0487L312.494 56.8636C312.131 58.1953 311.482 59.3619 310.544 60.3633C309.617 61.354 308.451 62.1264 307.044 62.6804C305.649 63.2237 304.056 63.4954 302.266 63.4954ZM322.877 48.4261V63H318.099V38.4545H322.685V42.4496H322.989C323.553 41.1499 324.438 40.1058 325.641 39.3175C326.856 38.5291 328.385 38.1349 330.228 38.1349C331.9 38.1349 333.365 38.4865 334.622 39.1896C335.879 39.8821 336.854 40.9155 337.547 42.2898C338.239 43.6641 338.585 45.3633 338.585 47.3874V63H333.807V47.9627C333.807 46.1836 333.344 44.7933 332.417 43.7919C331.49 42.7798 330.217 42.2738 328.598 42.2738C327.49 42.2738 326.504 42.5135 325.641 42.9929C324.789 43.4723 324.113 44.1754 323.612 45.1023C323.122 46.0185 322.877 47.1264 322.877 48.4261ZM356.451 38.4545V42.2898H343.044V38.4545H356.451ZM346.639 32.5739H351.417V55.793C351.417 56.7198 351.556 57.4176 351.833 57.8864C352.11 58.3445 352.467 58.6587 352.903 58.8292C353.351 58.989 353.836 59.0689 354.358 59.0689C354.741 59.0689 355.077 59.0423 355.364 58.989C355.652 58.9357 355.876 58.8931 356.036 58.8612L356.898 62.8082C356.621 62.9148 356.227 63.0213 355.716 63.1278C355.205 63.245 354.565 63.3089 353.798 63.3196C352.541 63.3409 351.369 63.1172 350.283 62.6484C349.196 62.1797 348.317 61.4553 347.646 60.4751C346.975 59.495 346.639 58.2646 346.639 56.7837V32.5739Z" fill="black"/>
<path d="M27 43H30V40H27V43Z" fill="black"/>
<path d="M27 49H30V46H27V49Z" fill="black"/>
<path d="M27 55H30V52H27V55Z" fill="black"/>
<path d="M27 62H30V59H27V62Z" fill="black"/>
<path d="M46 40H43V43H46V40Z" fill="black"/>
<path d="M52 40H49V43H52V40Z" fill="black"/>
<path d="M46 46H43V49H46V46Z" fill="black"/>
<path d="M52 46H49V49H52V46Z" fill="black"/>
<path d="M46 52H43V55H46V52Z" fill="black"/>
<path d="M52 52H49V55H52V52Z" fill="black"/>
<path d="M46 59H43V62H46V59Z" fill="black"/>
<path d="M52 59H49V62H52V59Z" fill="black"/>
<path fill-rule="evenodd" clip-rule="evenodd" d="M60.8476 25.5624C60.2657 30.0782 58.05 34.1298 54.7631 37.1968V67.661H39.5511V43.0857C39.5306 43.0857 39.51 43.0858 39.4895 43.0858C37.3988 43.0858 35.3777 42.8097 33.4666 42.295V67.661H24.3392V46.3603V37.3109C21.1846 34.4145 18.9946 30.6197 18.2546 26.3757V27.9446L8.16418 31.3007C6.92278 31.7202 6.08462 32.8846 6.08462 34.1945V48.2266L2.07957 49.5622C0.837309 49.9731 0 51.1375 0 52.4474V70.7003C0 72.3783 1.3621 73.7396 3.04185 73.7396H21.2965H36.5084H57.8058C59.4872 73.7396 60.8476 72.3783 60.8476 70.7003V25.5624ZM10.0827 53.3035L6.08462 54.6391V67.661H9.12734V61.5738C9.12734 59.8958 10.4894 58.5345 12.1691 58.5345C13.8498 58.5345 15.2119 59.8958 15.2119 61.5738V67.661H18.2546V50.581L10.0896 53.3035H10.0827ZM18.2546 34.3572L12.1691 36.3862V46.1976L18.2546 44.1685V34.3572Z" fill="black"/>
</svg>
