<?xml version="1.0" encoding="utf-8"?>
<!-- Generator: Adobe Illustrator 27.1.1, SVG Export Plug-In . SVG Version: 6.00 Build 0)  -->
<svg version="1.1" id="Ebene_1" xmlns="http://www.w3.org/2000/svg" xmlns:xlink="http://www.w3.org/1999/xlink" x="0px" y="0px"
	 viewBox="0 0 443.8 68" style="enable-background:new 0 0 443.8 68;" xml:space="preserve">
<style type="text/css">
	.st0{fill:#464646;}
	.st1{fill:#FFCB04;}
</style>
<g>
	<g>
		<path class="st0" d="M260.3,35.5c-1.2,1.2-2.3,2.3-3.5,3.2c-1.4,0.9-2.6,1.2-3.8,1.4c-1.2,0-2.3,0-3.5-0.9
			c-1.2-0.6-1.7-1.4-2.3-2.6c-0.6-1.2-0.9-2.6-0.9-4.1c0-1.4,0.3-2.9,0.9-4.1c0.6-1.2,1.4-2.3,2.3-2.9c1.2-0.9,2.3-1.2,3.5-1.4
			c1.2,0,2.6,0.3,4.1,0.9s2.6,1.7,3.5,2.9l6.1-8.1c-1.7-1.7-3.8-2.9-6.4-3.8c-2.6-0.9-4.9-1.2-7.5-0.9c-3.5,0.3-6.4,1.2-9,2.9
			c-2.6,1.7-4.6,3.8-6.4,6.7c-1.7,2.9-2.3,5.8-2.3,9c0,3.2,0.9,6.1,2.3,8.7c1.4,2.6,3.5,4.3,6.1,5.5c2.6,1.2,5.5,1.7,9,1.4
			c2.6-0.3,4.9-1.2,7.5-2.6c2.6-1.4,4.6-3.2,6.7-5.5L260.3,35.5z"/>
	</g>
	<path class="st0" d="M281.1,33.7l3.5-9.8l3.5,9.3L281.1,33.7z M279.4,13.5l-13.6,33.9l11-0.9l1.7-4.9l12.2-1.2l1.7,4.6l11.6-0.9
		l-13.3-31.5L279.4,13.5z"/>
	<polygon class="st0" points="324.8,26.5 316.7,10.3 305.4,11.1 305.4,43.8 315,43.3 315,25.3 321.3,39.5 328.3,38.6 334.9,23.3 
		334.9,41.5 344.5,40.7 344.5,7.7 332.9,8.8 	"/>
	<g>
		<path class="st0" d="M366.5,20.7c-0.6,0.9-1.4,1.2-2.6,1.2l-4.1,0.3v-7.5l4.1-0.3c1.2,0,2,0.3,2.6,0.9c0.6,0.6,0.9,1.4,0.9,2.6
			C367.3,19,367.1,20.1,366.5,20.7 M374,8.2c-2.3-1.7-5.5-2.6-9.8-2.3l-15.3,1.4v32.7l10.7-0.9v-8.4l4.6-0.3
			c4.3-0.3,7.5-1.7,9.8-4.1c2.3-2.3,3.5-5.5,3.5-9.6S376.3,10,374,8.2"/>
	</g>
	<polygon class="st0" points="391.7,24.2 406.7,22.7 406.7,14.6 391.7,15.8 391.7,12 408.4,10.3 408.4,2.2 381,4.5 381,37.5 
		408.7,34.9 408.7,26.8 391.7,28.2 	"/>
	<g>
		<path class="st0" d="M431.3,15.2c-0.6,0.9-1.4,1.2-2.6,1.2l-4.9,0.3V8.8l4.9-0.6c1.2,0,2,0.3,2.6,0.9c0.6,0.6,0.9,1.4,0.9,2.6
			C432.2,13.5,431.9,14.3,431.3,15.2 M437.4,21.8c1.7-1.2,2.9-2.6,3.8-4.6c0.9-1.7,1.4-4.1,1.4-6.4c0-3.8-1.2-6.7-3.8-8.4
			c-2.3-1.7-5.8-2.6-10.1-2l-15.6,1.4v32.7l10.7-0.9v-8.4l4.1-0.3l3.8,8.1l12.2-1.2L437.4,21.8z"/>
	</g>
</g>
<g>
	<polygon class="st1" points="71.2,52.2 86.3,50.8 86.3,42.7 71.2,43.8 71.2,39.8 88,38.3 88,30.2 60.2,32.6 60.2,65.3 88.3,62.9 
		88.3,54.6 71.2,56.3 	"/>
	<polygon class="st1" points="103.1,28.8 92.4,29.7 92.4,62.7 116.7,60.3 116.7,51.4 103.1,52.5 	"/>
	<polygon class="st1" points="130.3,26.5 119.6,27.3 119.6,60.1 143.9,58 143.9,49.1 130.3,50.2 	"/>
	<g>
		<path class="st1" d="M168.8,43.6c-0.6,1.2-1.4,2.3-2.3,3.2c-1.2,0.9-2,1.2-3.5,1.4c-1.2,0-2.3-0.3-3.5-0.9c-1.2-0.6-2-1.4-2.6-2.6
			c-0.6-1.2-0.9-2.6-0.9-4.1c0-1.4,0.3-2.9,0.9-4.3c0.6-1.2,1.4-2.3,2.6-3.2c1.2-0.9,2.3-1.2,3.5-1.4c1.2,0,2.3,0,3.5,0.9
			c1.2,0.6,1.7,1.4,2.3,2.6c0.6,1.2,0.9,2.6,0.9,4.1C169.7,41,169.4,42.4,168.8,43.6 M172,24.2c-2.6-1.2-5.8-1.7-9.3-1.4
			c-3.5,0.3-6.4,1.2-9.3,2.9c-2.6,1.7-4.9,3.8-6.4,6.7c-1.4,2.6-2.3,5.8-2.3,9s0.9,6.1,2.3,8.7s3.8,4.3,6.4,5.5
			c2.6,1.2,5.8,1.7,9.3,1.4c3.5-0.3,6.4-1.4,9.3-2.9c2.6-1.7,4.9-4.1,6.4-6.7c1.4-2.9,2.3-5.8,2.3-9c0-3.2-0.9-6.1-2.3-8.7
			C176.9,27.3,174.9,25.6,172,24.2"/>
	</g>
	<polygon class="st1" points="223.8,18.4 218.6,40.4 213.4,19.2 202.7,20.1 197.4,42.1 192.2,21 180.9,22.1 191.7,54 202.7,52.8 
		207.9,32.8 212.8,51.9 223.8,51.1 234.8,17.2 	"/>
	<polygon class="st1" points="41.4,46.7 34.8,34.9 24.1,35.7 35.9,57.4 35.9,67.6 46.6,66.4 46.6,56.3 58.5,32.8 47.8,33.7 	"/>
	<g>
		<path class="st1" d="M26.4,44.1L8.1,45.9c1.4,4.1,3.5,6.1,6.9,5.8l14.8-1.2L26.4,44.1z"/>
		<path class="st1" d="M21.8,36L0,38.1c1.4,4.3,3.5,6.4,6.9,6.1l18.5-1.7L21.8,36z"/>
		<path class="st1" d="M15.7,53.4c1.4,3.8,3.2,5.5,6.4,5.2l11.6-1.2l-2.9-5.5L15.7,53.4z"/>
	</g>
</g>
</svg>
